HIERARCHY
ROOT Hips
{
  OFFSET 0.0 0.0 0.0
  CHANNELS 6 XPOSITION YPOSITION ZPOSITION ZROTATION XROTATION YROTATION 
  JOINT LeftUpLeg
  {
    OFFSET 0.08945800000000001 -0.0866707 0.0010165200000000001
    CHANNELS 3 ZROTATION XROTATION YROTATION 
    JOINT LeftLeg
    {
      OFFSET 0.0 -0.444227 0.013727000000000001
      CHANNELS 3 ZROTATION XROTATION YROTATION 
      JOINT LeftFoot
      {
        OFFSET -0.0025354900000000005 -0.42092399999999996 -0.014605900000000002
        CHANNELS 3 ZROTATION XROTATION YROTATION 
        End Site
        {
          OFFSET -0.0004 -0.0441509 0.08499100000000001
        }
      }
    }
  }
  JOINT Spine
  {
    OFFSET 0.0 0.118905 0.0
    CHANNELS 3 ZROTATION XROTATION YROTATION 
    JOINT Spine1
    {
      OFFSET 0.0 0.25657399999999997 0.00127663
      CHANNELS 3 ZROTATION XROTATION YROTATION 
      End Site
      {
        OFFSET -0.0029 0.21508359999999999 0.02525291
      }
      JOINT RightArm
      {
        OFFSET -0.162727 -0.05365632 0.0010212299999999997
        CHANNELS 3 ZROTATION XROTATION YROTATION 
        JOINT RightForeArm
        {
          OFFSET -0.26364 0.00099144 -0.0142434
          CHANNELS 3 ZROTATION XROTATION YROTATION 
          End Site
          {
            OFFSET -0.220324 0.0008536199999999999 0.010221599999999999
          }
        }
      }
      JOINT LeftArm
      {
        OFFSET 0.162727 -0.053656319900000006 0.0010212299999999997
        CHANNELS 3 ZROTATION XROTATION YROTATION 
        JOINT LeftForeArm
        {
          OFFSET 0.26259699999999997 0.00099144 -0.0142434
          CHANNELS 3 ZROTATION XROTATION YROTATION 
          End Site
          {
            OFFSET 0.220902 0.0008536199999999999 0.010221599999999999
          }
        }
      }
    }
  }
  JOINT RightUpLeg
  {
    OFFSET -0.08945800000000001 -0.0866707 0.0010165200000000001
    CHANNELS 3 ZROTATION XROTATION YROTATION 
    JOINT RightLeg
    {
      OFFSET 0.0 -0.444227 0.013727000000000001
      CHANNELS 3 ZROTATION XROTATION YROTATION 
      JOINT RightFoot
      {
        OFFSET 0.0025354900000000005 -0.42092399999999996 -0.014605900000000002
        CHANNELS 3 ZROTATION XROTATION YROTATION 
        End Site
        {
          OFFSET 0.0004 -0.0441509 0.08499100000000001
        }
      }
    }
  }
}
MOTION
Frames: 5
Frame Time: 0.033333
1.9120599999999999 0.9896062251138941 0.0416319 -5.045110265806633 -0.4345870343217665 -90.7360988215196 -1.7239900124346415 4.379049854740853 2.4618800011851545 -0.22262099801242707 7.7678298553092855 22.808499780361508 -1.3942297599668951 -7.43689523719112 0.009105395885674078 0.8214560192242968 8.088540534013587 -0.19897300213577854 -2.0780699004941585 -0.8826919735063403 0.28745000532386755 78.24287003705506 -17.904980616709707 5.112929348509805 8.014110255080666 37.51989909213211 8.371939596829403 -73.09318061043224 -10.743933668206955 -1.420949459999985 -5.964940379068713 36.58429977962376 -12.514900120927358 -0.2714920153800732 3.7185001256748045 -4.023370315033378 -0.07362150182586996 10.473400120466504 -10.67559933310827 2.349404074471381 -9.338200482295584 -0.09006023970367666 
1.91199 0.9896062251138941 0.0417323 -5.033049859279683 -0.4304200052782505 -90.73489670822569 -1.7261899736776203 4.3814101119859155 2.46105995159793 -0.22863900832101655 7.741220292076561 22.82320005500267 -1.3942297599668951 -7.43689523719112 0.009105395885674078 0.7550489714103189 7.987839639985505 -0.19188099794105745 -1.9473599300173898 -0.7407840146070415 0.2710230001635902 78.29906883354592 -18.08526687494678 5.244247419266117 8.05570013071052 37.706499860256855 8.242930130012557 -73.14438653863984 -10.71067833091181 -1.471571727198652 -5.8505598967935635 36.69380137239741 -12.629500449916415 -0.28419299226554995 3.704840174221602 -4.037290240561864 -0.06291249891901722 10.484500031641423 -10.658499954521142 2.4101643701107567 -9.348000949980905 -0.09006286772568152 
1.9118899999999999 0.9896062251138941 0.0419274 -5.0073000461087345 -0.43553901861776345 -90.7245967829573 -1.7490000307411124 4.3568999781493245 2.4260398641759817 -0.21819000616987388 7.737619928610319 22.86009844444637 -1.393269798223391 -7.437395548547824 0.009105399220727384 0.5970479662485593 7.750160155926462 -0.16848000945244007 -1.656719906186009 -0.413598023084876 0.24330201040643235 78.37102487645201 -18.240704904983346 5.442752353340551 8.081630090120827 37.82070062317947 8.150749896974064 -73.25155220671734 -10.688376909498071 -1.6116538911554417 -5.731219416520515 36.85390100654251 -12.74000010408253 -0.3133959996704684 3.6628498787516564 -4.0688499833955545 -0.04819469857273597 10.532500039807333 -10.627999744782452 2.441305977301195 -9.380900263665565 -0.0900713254208647 
1.9118000000000002 0.9896062251138941 0.042179 -4.986240011576647 -0.4693660107299276 -90.7343024817679 -1.8119200535403872 4.341769828477277 2.366259914125915 -0.20633299787393009 7.727790432621024 22.93469947810854 -1.3796596858067887 -7.435995359767971 0.00910537670911757 0.42105501551336966 7.533130041275661 -0.1270780040454012 -1.3708500224379416 -0.11518500385418261 0.23458901022259682 78.40732050170145 -18.17471161722268 5.556328580840931 8.0637904897824 37.701401124041446 8.20624006133854 -73.3491351193893 -10.592287246933394 -1.736364607663412 -5.698590322194895 36.87280013997593 -12.785800791335696 -0.38371501165114463 3.597960093428773 -4.132170105869804 -0.03462129842292235 10.629900244919007 -10.533699591780316 2.426508585907774 -9.436299928023537 -0.09008578621199809 
1.91176 0.9896062251138941 0.042444800000000005 -4.97886981057538 -0.5158469954965983 -90.76970335223608 -1.8829401470867684 4.356319838956697 2.3270401141380552 -0.21721599718184625 7.690029731794609 23.011300049650234 -1.3361597050868583 -7.422795165423275 0.00910510240098318 0.3103400236254166 7.442220223422791 -0.0911041980997374 -1.2242400119036179 0.016557899332418295 0.2443189882212502 78.43001039012424 -18.038667909334368 5.600651812799259 8.062479947235405 37.61039909863478 8.249559682375699 -73.40209640621359 -10.394136628922153 -1.7680686382433186 -5.692559692044597 36.69660174995711 -12.845899625842637 -0.4738629966072935 3.5456199269321425 -4.207699618372274 -0.019459799249801433 10.716699142665176 -10.399599926484518 2.404030433349262 -9.479300237716998 -0.0900970253416382 
